<svg xmlns="http://www.w3.org/2000/svg" xmlns:xlink="http://www.w3.org/1999/xlink" width="800" zoomAndPan="magnify" viewBox="0 0 600 399.74999" height="533" preserveAspectRatio="xMidYMid meet" version="1.0"><defs><filter x="0%" y="0%" width="100%" height="100%" id="a8d982a58c"><feColorMatrix values="0 0 0 0 1 0 0 0 0 1 0 0 0 0 1 0 0 0 1 0" color-interpolation-filters="sRGB"/></filter><clipPath id="8f31208c3d"><path d="M 0.1875 0 L 599.8125 0 L 599.8125 399.5 L 0.1875 399.5 Z M 0.1875 0 " clip-rule="nonzero"/></clipPath><clipPath id="2c5e9252b8"><path d="M 0.1875 0 L 465 0 L 465 399.5 L 0.1875 399.5 Z M 0.1875 0 " clip-rule="nonzero"/></clipPath><clipPath id="556644938b"><path d="M -129.09375 31.914062 L 263.011719 -111.445312 L 465.824219 443.273438 L 73.722656 586.632812 Z M -129.09375 31.914062 " clip-rule="nonzero"/></clipPath><clipPath id="611b5bfbd7"><path d="M -129.09375 31.914062 L 263.011719 -111.445312 L 465.824219 443.273438 L 73.722656 586.632812 Z M -129.09375 31.914062 " clip-rule="nonzero"/></clipPath><clipPath id="265e3daf4f"><path d="M 0.1875 74 L 230 74 L 230 399.5 L 0.1875 399.5 Z M 0.1875 74 " clip-rule="nonzero"/></clipPath><clipPath id="a8fcc58b7e"><path d="M -129.09375 31.914062 L 263.011719 -111.445312 L 465.824219 443.273438 L 73.722656 586.632812 Z M -129.09375 31.914062 " clip-rule="nonzero"/></clipPath><clipPath id="cf93f56d14"><path d="M -129.09375 31.914062 L 263.011719 -111.445312 L 465.824219 443.273438 L 73.722656 586.632812 Z M -129.09375 31.914062 " clip-rule="nonzero"/></clipPath><mask id="dcb4060016"><g filter="url(#a8d982a58c)"><rect x="-60" width="720" fill="#000000" y="-39.974999" height="479.699988" fill-opacity="0.9"/></g></mask><clipPath id="b99f217fbc"><path d="M 0.1875 68 L 162 68 L 162 325.5 L 0.1875 325.5 Z M 0.1875 68 " clip-rule="nonzero"/></clipPath><clipPath id="aec8739dd2"><path d="M -129.09375 -42.085938 L 263.011719 -185.445312 L 465.824219 369.273438 L 73.722656 512.632812 Z M -129.09375 -42.085938 " clip-rule="nonzero"/></clipPath><clipPath id="36d409eafe"><path d="M -129.09375 -42.085938 L 263.011719 -185.445312 L 465.824219 369.273438 L 73.722656 512.632812 Z M -129.09375 -42.085938 " clip-rule="nonzero"/></clipPath><clipPath id="b687ffe55b"><rect x="0" width="230" y="0" height="326"/></clipPath><clipPath id="18e0eb4114"><path d="M 110 335 L 419 335 L 419 399.5 L 110 399.5 Z M 110 335 " clip-rule="nonzero"/></clipPath><clipPath id="01cebf63d7"><path d="M -129.09375 31.914062 L 263.011719 -111.445312 L 465.824219 443.273438 L 73.722656 586.632812 Z M -129.09375 31.914062 " clip-rule="nonzero"/></clipPath><clipPath id="b2aa25da7d"><path d="M -129.09375 31.914062 L 263.011719 -111.445312 L 465.824219 443.273438 L 73.722656 586.632812 Z M -129.09375 31.914062 " clip-rule="nonzero"/></clipPath><clipPath id="f87a1a92dc"><path d="M 0.1875 0 L 62 0 L 62 140 L 0.1875 140 Z M 0.1875 0 " clip-rule="nonzero"/></clipPath><clipPath id="2ffa0204c2"><path d="M -129.09375 31.914062 L 263.011719 -111.445312 L 465.824219 443.273438 L 73.722656 586.632812 Z M -129.09375 31.914062 " clip-rule="nonzero"/></clipPath><clipPath id="d3ab937e79"><path d="M -129.09375 31.914062 L 263.011719 -111.445312 L 465.824219 443.273438 L 73.722656 586.632812 Z M -129.09375 31.914062 " clip-rule="nonzero"/></clipPath><clipPath id="4570f7bc66"><path d="M 83 0 L 571 0 L 571 399.5 L 83 399.5 Z M 83 0 " clip-rule="nonzero"/></clipPath><clipPath id="3ab2675175"><path d="M 82.324219 -17.375 L 477.945312 -162.019531 L 682.5625 397.625 L 286.9375 542.269531 Z M 82.324219 -17.375 " clip-rule="nonzero"/></clipPath><clipPath id="18c10c5606"><path d="M 682.539062 398.007812 L 286.917969 542.652344 L 82.300781 -16.992188 L 477.925781 -161.636719 Z M 682.539062 398.007812 " clip-rule="nonzero"/></clipPath><clipPath id="2fa00f189d"><path d="M 320 0 L 599.8125 0 L 599.8125 355 L 320 355 Z M 320 0 " clip-rule="nonzero"/></clipPath><clipPath id="226e002f11"><path d="M 82.324219 -17.375 L 477.945312 -162.019531 L 682.5625 397.625 L 286.9375 542.269531 Z M 82.324219 -17.375 " clip-rule="nonzero"/></clipPath><clipPath id="8f53a487bf"><path d="M 682.539062 398.007812 L 286.917969 542.652344 L 82.300781 -16.992188 L 477.925781 -161.636719 Z M 682.539062 398.007812 " clip-rule="nonzero"/></clipPath><mask id="c71df895b9"><g filter="url(#a8d982a58c)"><rect x="-60" width="720" fill="#000000" y="-39.974999" height="479.699988" fill-opacity="0.9"/></g></mask><clipPath id="abd658c887"><path d="M 69 0 L 279.8125 0 L 279.8125 287 L 69 287 Z M 69 0 " clip-rule="nonzero"/></clipPath><clipPath id="c1514c9947"><path d="M -237.675781 -17.375 L 157.945312 -162.019531 L 362.5625 397.625 L -33.0625 542.269531 Z M -237.675781 -17.375 " clip-rule="nonzero"/></clipPath><clipPath id="a4b40fb27e"><path d="M 362.539062 398.007812 L -33.082031 542.652344 L -237.699219 -16.992188 L 157.925781 -161.636719 Z M 362.539062 398.007812 " clip-rule="nonzero"/></clipPath><clipPath id="ee96df5bb2"><rect x="0" width="280" y="0" height="355"/></clipPath><clipPath id="e467e46c41"><path d="M 130 0 L 441 0 L 441 92 L 130 92 Z M 130 0 " clip-rule="nonzero"/></clipPath><clipPath id="9eacca8868"><path d="M 82.324219 -17.375 L 477.945312 -162.019531 L 682.5625 397.625 L 286.9375 542.269531 Z M 82.324219 -17.375 " clip-rule="nonzero"/></clipPath><clipPath id="c528012d66"><path d="M 682.539062 398.007812 L 286.917969 542.652344 L 82.300781 -16.992188 L 477.925781 -161.636719 Z M 682.539062 398.007812 " clip-rule="nonzero"/></clipPath><clipPath id="45a718f4ea"><path d="M 489 289 L 599.8125 289 L 599.8125 399.5 L 489 399.5 Z M 489 289 " clip-rule="nonzero"/></clipPath><clipPath id="527a92daeb"><path d="M 82.324219 -17.375 L 477.945312 -162.019531 L 682.5625 397.625 L 286.9375 542.269531 Z M 82.324219 -17.375 " clip-rule="nonzero"/></clipPath><clipPath id="aaf82e5582"><path d="M 682.539062 398.007812 L 286.917969 542.652344 L 82.300781 -16.992188 L 477.925781 -161.636719 Z M 682.539062 398.007812 " clip-rule="nonzero"/></clipPath></defs><g clip-path="url(#8f31208c3d)"><path fill="#ffffff" d="M 0.1875 0 L 599.8125 0 L 599.8125 399.5 L 0.1875 399.5 Z M 0.1875 0 " fill-opacity="1" fill-rule="nonzero"/><path fill="#ffffff" d="M 0.1875 0 L 599.8125 0 L 599.8125 399.5 L 0.1875 399.5 Z M 0.1875 0 " fill-opacity="1" fill-rule="nonzero"/></g><g clip-path="url(#2c5e9252b8)"><g clip-path="url(#556644938b)"><g clip-path="url(#611b5bfbd7)"><path fill="#ff3131" d="M 98.457031 -33.679688 L 130.238281 53.238281 L 69.085938 184.878906 L 179.664062 236.246094 L 200.6875 245.921875 L 260.5625 273.734375 L 281.023438 283.242188 L 331.722656 306.792969 L 361.851562 320.878906 L 433.011719 353.9375 L 464.792969 440.859375 L 393.632812 407.800781 L 363.503906 393.714844 L 312.84375 370.273438 L 292.34375 360.65625 L 232.464844 332.84375 L 211.445312 323.167969 L -17.835938 216.660156 Z M 98.457031 -33.679688 " fill-opacity="1" fill-rule="nonzero"/></g></g></g><g clip-path="url(#265e3daf4f)"><g clip-path="url(#a8fcc58b7e)"><g clip-path="url(#cf93f56d14)"><g mask="url(#dcb4060016)"><g transform="matrix(1, 0, 0, 1, 0.000000000000000028, 74)"><g clip-path="url(#b687ffe55b)"><g clip-path="url(#b99f217fbc)"><g clip-path="url(#aec8739dd2)"><g clip-path="url(#36d409eafe)"><path fill="#00008b" d="M 161.765625 185.027344 L 45.472656 435.367188 L 13.691406 348.445312 L 74.84375 216.808594 L -56.796875 155.65625 L -88.574219 68.734375 Z M 161.765625 185.027344 " fill-opacity="1" fill-rule="evenodd"/></g></g></g></g></g></g></g></g></g><g clip-path="url(#18e0eb4114)"><g clip-path="url(#01cebf63d7)"><g clip-path="url(#b2aa25da7d)"><path fill="#ff3131" d="M 416.269531 452.980469 C 335.179688 415.308594 254.089844 377.640625 173 339.972656 C 170.140625 338.644531 167.285156 337.316406 164.425781 335.988281 C 162.769531 335.21875 160.566406 336.023438 159.796875 337.679688 C 143.585938 372.582031 127.300781 407.636719 111.085938 442.539062 C 109.199219 446.601562 115.519531 449.535156 117.40625 445.472656 C 133.128906 411.625 148.925781 377.625 164.648438 343.773438 C 244.6875 380.953125 324.722656 418.132812 404.757812 455.316406 C 407.617188 456.640625 410.476562 457.96875 413.335938 459.296875 C 417.394531 461.183594 420.332031 454.867188 416.269531 452.980469 Z M 416.269531 452.980469 " fill-opacity="1" fill-rule="nonzero"/></g></g></g><g clip-path="url(#f87a1a92dc)"><g clip-path="url(#2ffa0204c2)"><g clip-path="url(#d3ab937e79)"><path fill="#00008b" d="M 55.128906 -31.953125 C 29.71875 22.550781 4.460938 77.121094 -20.949219 131.621094 C -36.144531 124.5625 -51.339844 117.503906 -66.535156 110.445312 C -70.597656 108.558594 -73.53125 114.878906 -69.46875 116.765625 C -53.222656 124.3125 -36.972656 131.859375 -20.726562 139.410156 C -19.070312 140.175781 -16.867188 139.371094 -16.097656 137.714844 C 9.800781 82.164062 35.546875 26.539062 61.449219 -29.015625 C 63.335938 -33.078125 57.015625 -36.015625 55.128906 -31.953125 Z M 55.128906 -31.953125 " fill-opacity="1" fill-rule="nonzero"/></g></g></g><g clip-path="url(#4570f7bc66)"><g clip-path="url(#3ab2675175)"><g clip-path="url(#18c10c5606)"><path fill="#ff3131" d="M 452.949219 464.1875 L 420.886719 376.488281 L 482.585938 243.667969 L 371.019531 191.84375 L 349.808594 182.082031 L 289.394531 154.015625 L 268.753906 144.425781 L 217.597656 120.664062 L 187.199219 106.449219 L 115.402344 73.097656 L 83.335938 -14.601562 L 155.136719 18.75 L 185.535156 32.964844 L 236.648438 56.617188 L 257.332031 66.316406 L 317.746094 94.382812 L 338.953125 104.144531 L 570.285156 211.605469 Z M 452.949219 464.1875 " fill-opacity="1" fill-rule="nonzero"/></g></g></g><g clip-path="url(#2fa00f189d)"><g clip-path="url(#226e002f11)"><g clip-path="url(#8f53a487bf)"><g mask="url(#c71df895b9)"><g transform="matrix(1, 0, 0, 1, 320, 0)"><g clip-path="url(#ee96df5bb2)"><g clip-path="url(#abd658c887)"><g clip-path="url(#c1514c9947)"><g clip-path="url(#a4b40fb27e)"><path fill="#00008b" d="M 69.078125 168.859375 L 186.410156 -83.722656 L 218.476562 3.976562 L 156.777344 136.792969 L 289.59375 198.492188 L 321.660156 286.191406 Z M 69.078125 168.859375 " fill-opacity="1" fill-rule="evenodd"/></g></g></g></g></g></g></g></g></g><g clip-path="url(#e467e46c41)"><g clip-path="url(#9eacca8868)"><g clip-path="url(#c528012d66)"><path fill="#ff3131" d="M 132.296875 -26.832031 C 214.109375 11.175781 295.925781 49.183594 377.742188 87.191406 C 380.625 88.53125 383.511719 89.871094 386.394531 91.207031 C 388.0625 91.984375 390.285156 91.171875 391.0625 89.503906 C 407.421875 54.285156 423.851562 18.917969 440.210938 -16.296875 C 442.113281 -20.394531 435.738281 -23.355469 433.835938 -19.257812 C 417.96875 14.894531 402.035156 49.199219 386.167969 83.351562 C 305.414062 45.839844 224.660156 8.328125 143.910156 -29.1875 C 141.023438 -30.527344 138.140625 -31.867188 135.257812 -33.207031 C 131.160156 -35.109375 128.195312 -28.734375 132.296875 -26.832031 Z M 132.296875 -26.832031 " fill-opacity="1" fill-rule="nonzero"/></g></g></g><g clip-path="url(#45a718f4ea)"><g clip-path="url(#527a92daeb)"><g clip-path="url(#aaf82e5582)"><path fill="#00008b" d="M 496.667969 462.441406 C 522.304688 407.453125 547.789062 352.394531 573.425781 297.402344 C 588.757812 304.527344 604.089844 311.648438 619.421875 318.769531 C 623.519531 320.671875 626.480469 314.296875 622.382812 312.394531 C 605.988281 304.777344 589.59375 297.164062 573.203125 289.546875 C 571.53125 288.773438 569.308594 289.585938 568.535156 291.253906 C 542.402344 347.304688 516.425781 403.429688 490.292969 459.480469 C 488.390625 463.578125 494.765625 466.539062 496.667969 462.441406 Z M 496.667969 462.441406 " fill-opacity="1" fill-rule="nonzero"/></g></g></g></svg>